{"asset":{"version":"2.0","generator":"THREE.GLTFExporter"},"scenes":[{"nodes":[2]}],"scene":0,"nodes":[{"name":"Object_33","extras":{"name":"Object_33"},"mesh":0},{"matrix":[-0.0010000000474973975,-2.0918647284539333e-12,3.2582793922265596e-10,0,2.091864728453934e-12,0.0009999176142010719,0.00001283977434930846,0,-3.2582793922265596e-10,0.000012839774349308458,-0.000999917614201018,0,0.00037089645047672093,0.7112535238265991,-1.4486889839172363,1],"name":"Trunk_4","extras":{"name":"Trunk_4"},"children":[0]},{"children":[1]}],"bufferViews":[{"buffer":0,"byteOffset":0,"byteLength":22272,"target":34962,"byteStride":12},{"buffer":0,"byteOffset":22272,"byteLength":22272,"target":34962,"byteStride":12},{"buffer":0,"byteOffset":44544,"byteLength":14848,"target":34962,"byteStride":8},{"buffer":0,"byteOffset":59392,"byteLength":14848,"target":34962,"byteStride":8},{"buffer":0,"byteOffset":74240,"byteLength":40224,"target":34963}],"buffers":[{"byteLength":114464,"uri":"data:application/octet-stream;base64,"}],"accessors":[{"bufferView":0,"componentType":5126,"count":1856,"max":[0.9805114269256592,0.9996747970581055,0.9990835189819336],"min":[-0.9808496832847595,-0.9902592301368713,-0.9999983906745911],"type":"VEC3"},{"bufferView":1,"componentType":5126,"count":1856,"max":[786.1277465820312,0.683868408203125,838.5260620117188],"min":[-786.125732421875,-266.69110107421875,3.2458457946777344],"type":"VEC3"},{"bufferView":2,"componentType":5126,"count":1856,"max":[2.0875189304351807,4.1316351890563965],"min":[-1.5778892040252686,-3.1002087593078613],"type":"VEC2"},{"bufferView":3,"componentType":5126,"count":1856,"max":[-1335.322998046875,-0.5378519892692566],"min":[-2171.385986328125,-789.3353881835938],"type":"VEC2"},{"bufferView":4,"componentType":5125,"count":10056,"max":[1855],"min":[0],"type":"SCALAR"}],"materials":[{"pbrMetallicRoughness":{"baseColorFactor":[1,0.4467292081272397,0.8496799173033617,1],"metallicFactor":0,"roughnessFactor":0},"doubleSided":true,"name":"CARROSSERIE","extensions":{"KHR_materials_specular":{"specularFactor":0.15085760261364606,"specularColorFactor":[1,1,1]}}}],"meshes":[{"primitives":[{"mode":4,"attributes":{"NORMAL":0,"POSITION":1,"TEXCOORD_0":2,"TEXCOORD_1":3},"indices":4,"material":0}]}],"extensionsUsed":["KHR_materials_specular"]}