{"asset":{"version":"2.0","generator":"THREE.GLTFExporter"},"scenes":[{"nodes":[2]}],"scene":0,"nodes":[{"name":"Object_49","extras":{"name":"Object_49"},"mesh":0},{"matrix":[-0.9999999999999738,1.6290725396003668e-7,1.6501252082970493e-7,0,-1.629072539600367e-7,0.012839604450622598,-0.999917568881318,0,-1.650125208297049e-7,-0.999917568881318,-0.012839604450596285,0,0.00036467774771153927,-0.061130091547966,-0.13464504480361938,1],"name":"1001_8","extras":{"name":"1.001_8"},"children":[0]},{"children":[1]}],"bufferViews":[{"buffer":0,"byteOffset":0,"byteLength":22368,"target":34962,"byteStride":12},{"buffer":0,"byteOffset":22368,"byteLength":22368,"target":34962,"byteStride":12},{"buffer":0,"byteOffset":44736,"byteLength":14912,"target":34962,"byteStride":8},{"buffer":0,"byteOffset":59648,"byteLength":35448,"target":34963}],"buffers":[{"byteLength":95096,"uri":"data:application/octet-stream;base64,"}],"accessors":[{"bufferView":0,"componentType":5126,"count":1864,"max":[0.9992501735687256,0.9982794523239136,1],"min":[-0.9992502331733704,-0.9986482262611389,-0.9992899298667908],"type":"VEC3"},{"bufferView":1,"componentType":5126,"count":1864,"max":[1.0621191263198853,1.7911778688430786,-0.21777820587158203],"min":[-1.0621191263198853,-1.998200535774231,-0.8776341080665588],"type":"VEC3"},{"bufferView":2,"componentType":5126,"count":1864,"max":[5.242810249328613,6.658475399017334],"min":[-4.45536994934082,-5.658475399017334],"type":"VEC2"},{"bufferView":3,"componentType":5125,"count":8862,"max":[1863],"min":[0],"type":"SCALAR"}],"materials":[{"pbrMetallicRoughness":{"baseColorFactor":[1,0.4467292081272397,0.8496799173033617,1],"metallicFactor":0,"roughnessFactor":0},"doubleSided":true,"name":"CARROSSERIE","extensions":{"KHR_materials_specular":{"specularFactor":0.15085760261364606,"specularColorFactor":[1,1,1]}}}],"meshes":[{"primitives":[{"mode":4,"attributes":{"NORMAL":0,"POSITION":1,"TEXCOORD_0":2},"indices":3,"material":0}]}],"extensionsUsed":["KHR_materials_specular"]}