{"asset":{"version":"2.0","generator":"THREE.GLTFExporter"},"scenes":[{"nodes":[2]}],"scene":0,"nodes":[{"name":"Object_70","extras":{"name":"Object_70"},"mesh":0},{"matrix":[-6.929833915671779e-7,2.054806057557086,-1.5878340790829601,0,0.0000010718609993107952,1.5878340790831078,2.0548060575568083,0,2.59681391715972,-1.0705073904323139e-7,-0.0000012718693029356176,0,-0.0004415414878167212,0.39070403575897217,-2.3889963626861572,1],"name":"1006_11","extras":{"name":"1.006_11"},"children":[0]},{"children":[1]}],"bufferViews":[{"buffer":0,"byteOffset":0,"byteLength":4008,"target":34962,"byteStride":12},{"buffer":0,"byteOffset":4008,"byteLength":4008,"target":34962,"byteStride":12},{"buffer":0,"byteOffset":8016,"byteLength":2672,"target":34962,"byteStride":8},{"buffer":0,"byteOffset":10688,"byteLength":2672,"target":34962,"byteStride":8},{"buffer":0,"byteOffset":13360,"byteLength":2672,"target":34962,"byteStride":8},{"buffer":0,"byteOffset":16032,"byteLength":2672,"target":34962,"byteStride":8},{"buffer":0,"byteOffset":18704,"byteLength":3744,"target":34963}],"buffers":[{"byteLength":22448,"uri":"data:application/octet-stream;base64,"}],"accessors":[{"bufferView":0,"componentType":5126,"count":334,"max":[0.9995542168617249,0.9995394945144653,1],"min":[-0.9995493292808533,-0.9995408654212952,-1],"type":"VEC3"},{"bufferView":1,"componentType":5126,"count":334,"max":[0.0010876655578613281,0.008598417043685913,0.01320260763168335],"min":[-0.0010879039764404297,-0.00859840214252472,-0.012031316757202148],"type":"VEC3"},{"bufferView":2,"componentType":5126,"count":334,"max":[1.0000001192092896,1],"min":[0,0],"type":"VEC2"},{"bufferView":3,"componentType":5126,"count":334,"max":[0,0],"min":[0,0],"type":"VEC2"},{"bufferView":4,"componentType":5126,"count":334,"max":[0,0],"min":[0,0],"type":"VEC2"},{"bufferView":5,"componentType":5126,"count":334,"max":[0,0],"min":[0,0],"type":"VEC2"},{"bufferView":6,"componentType":5125,"count":936,"max":[333],"min":[0],"type":"SCALAR"}],"materials":[{"pbrMetallicRoughness":{"metallicFactor":0,"roughnessFactor":0.01676195584596067},"doubleSided":true,"name":"JANTE","extensions":{"KHR_materials_specular":{"specularFactor":0.12647657592861233,"specularColorFactor":[1,1,1]}}}],"meshes":[{"primitives":[{"mode":4,"attributes":{"NORMAL":0,"POSITION":1,"TEXCOORD_0":2,"TEXCOORD_1":3,"TEXCOORD_2":4,"TEXCOORD_3":5},"indices":6,"material":0}]}],"extensionsUsed":["KHR_materials_specular"]}