{"asset":{"version":"2.0","generator":"THREE.GLTFExporter"},"scenes":[{"nodes":[2]}],"scene":0,"nodes":[{"name":"Object_24","extras":{"name":"Object_24"},"mesh":0},{"matrix":[-0.0010000000474973975,-2.0918647284539333e-12,3.2582793922265596e-10,0,2.091864728453934e-12,0.0009999176142010719,0.00001283977434930846,0,-3.2582793922265596e-10,0.000012839774349308458,-0.000999917614201018,0,0.0003713149344548583,1.0291564464569092,0.4955933690071106,1],"name":"EngineHood_2","extras":{"name":"EngineHood_2"},"children":[0]},{"children":[1]}],"bufferViews":[{"buffer":0,"byteOffset":0,"byteLength":89892,"target":34962,"byteStride":12},{"buffer":0,"byteOffset":89892,"byteLength":89892,"target":34962,"byteStride":12},{"buffer":0,"byteOffset":179784,"byteLength":59928,"target":34962,"byteStride":8},{"buffer":0,"byteOffset":239712,"byteLength":59928,"target":34962,"byteStride":8},{"buffer":0,"byteOffset":299640,"byteLength":151008,"target":34963}],"buffers":[{"byteLength":450648,"uri":"data:application/octet-stream;base64,"}],"accessors":[{"bufferView":0,"componentType":5126,"count":7491,"max":[0.9999993443489075,0.9999727606773376,0.9978678822517395],"min":[-0.9999988079071045,-0.9987162351608276,-0.9999847412109375],"type":"VEC3"},{"bufferView":1,"componentType":5126,"count":7491,"max":[732.7097778320312,6.68988037109375,-33.65044021606445],"min":[-733.1815795898438,-225.68719482421875,-1401.93994140625],"type":"VEC3"},{"bufferView":2,"componentType":5126,"count":7491,"max":[9.541601181030273,30.77850914001465],"min":[-2.2565155029296875,-28.0081844329834],"type":"VEC2"},{"bufferView":3,"componentType":5126,"count":7491,"max":[2012.8076171875,699.6202392578125],"min":[-17.965791702270508,-733.1160278320312],"type":"VEC2"},{"bufferView":4,"componentType":5125,"count":37752,"max":[7490],"min":[0],"type":"SCALAR"}],"materials":[{"pbrMetallicRoughness":{"baseColorFactor":[1,0.4467292081272397,0.8496799173033617,1],"metallicFactor":0,"roughnessFactor":0},"doubleSided":true,"name":"CARROSSERIE","extensions":{"KHR_materials_specular":{"specularFactor":0.15085760261364606,"specularColorFactor":[1,1,1]}}}],"meshes":[{"primitives":[{"mode":4,"attributes":{"NORMAL":0,"POSITION":1,"TEXCOORD_0":2,"TEXCOORD_1":3},"indices":4,"material":0}]}],"extensionsUsed":["KHR_materials_specular"]}