{"asset":{"version":"2.0","generator":"THREE.GLTFExporter"},"scenes":[{"nodes":[7]}],"scene":0,"nodes":[{"name":"Object_26","extras":{"name":"Object_26"},"mesh":0},{"name":"Object_27","extras":{"name":"Object_27"},"mesh":1},{"name":"Object_28","extras":{"name":"Object_28"},"mesh":2},{"name":"Object_29","extras":{"name":"Object_29"},"mesh":3},{"name":"Object_30","extras":{"name":"Object_30"},"mesh":4},{"name":"Object_31","extras":{"name":"Object_31"},"mesh":5},{"matrix":[-0.0010000000474973975,-2.0918647284539333e-12,3.2582793922265596e-10,0,2.091864728453934e-12,0.0009999176142010719,0.00001283977434930846,0,-3.2582793922265596e-10,0.000012839774349308458,-0.000999917614201018,0,0.00036441528936848044,0.0414077490568161,-0.1270543932914734,1],"name":"Headlights_3","extras":{"name":"Headlights_3"},"children":[0,1,2,3,4,5]},{"children":[6]}],"bufferViews":[{"buffer":0,"byteOffset":0,"byteLength":53196,"target":34962,"byteStride":12},{"buffer":0,"byteOffset":53196,"byteLength":53196,"target":34962,"byteStride":12},{"buffer":0,"byteOffset":106392,"byteLength":35464,"target":34962,"byteStride":8},{"buffer":0,"byteOffset":141856,"byteLength":62400,"target":34963},{"buffer":0,"byteOffset":204256,"byteLength":36600,"target":34962,"byteStride":12},{"buffer":0,"byteOffset":240856,"byteLength":36600,"target":34962,"byteStride":12},{"buffer":0,"byteOffset":277456,"byteLength":24400,"target":34962,"byteStride":8},{"buffer":0,"byteOffset":301856,"byteLength":42912,"target":34963},{"buffer":0,"byteOffset":344768,"byteLength":30540,"target":34962,"byteStride":12},{"buffer":0,"byteOffset":375308,"byteLength":30540,"target":34962,"byteStride":12},{"buffer":0,"byteOffset":405848,"byteLength":20360,"target":34962,"byteStride":8},{"buffer":0,"byteOffset":426208,"byteLength":33408,"target":34963},{"buffer":0,"byteOffset":459616,"byteLength":6996,"target":34962,"byteStride":12},{"buffer":0,"byteOffset":466612,"byteLength":6996,"target":34962,"byteStride":12},{"buffer":0,"byteOffset":473608,"byteLength":4664,"target":34962,"byteStride":8},{"buffer":0,"byteOffset":478272,"byteLength":8256,"target":34963},{"buffer":0,"byteOffset":486528,"byteLength":7512,"target":34962,"byteStride":12},{"buffer":0,"byteOffset":494040,"byteLength":7512,"target":34962,"byteStride":12},{"buffer":0,"byteOffset":501552,"byteLength":5008,"target":34962,"byteStride":8},{"buffer":0,"byteOffset":506560,"byteLength":13416,"target":34963},{"buffer":0,"byteOffset":519976,"byteLength":1392,"target":34962,"byteStride":12},{"buffer":0,"byteOffset":521368,"byteLength":1392,"target":34962,"byteStride":12},{"buffer":0,"byteOffset":522760,"byteLength":928,"target":34962,"byteStride":8},{"buffer":0,"byteOffset":523688,"byteLength":1728,"target":34963}],"buffers":[{"byteLength":525416,"uri":"data:application/octet-stream;base64,"}],"accessors":[{"bufferView":0,"componentType":5126,"count":4433,"max":[0.9999997019767761,0.9999819993972778,0.999171257019043],"min":[-0.9999997615814209,-0.9999399185180664,-0.7235638499259949],"type":"VEC3"},{"bufferView":1,"componentType":5126,"count":4433,"max":[825.1854248046875,529.2772216796875,2077.865478515625],"min":[-825.864990234375,357.1645812988281,1682.8433837890625],"type":"VEC3"},{"bufferView":2,"componentType":5126,"count":4433,"max":[9.234167098999023,-9.72303295135498],"min":[-2.400942802429199,-20.707008361816406],"type":"VEC2"},{"bufferView":3,"componentType":5125,"count":15600,"max":[4432],"min":[0],"type":"SCALAR"},{"bufferView":4,"componentType":5126,"count":3050,"max":[0.9996417164802551,0.9998726844787598,0.9998788833618164],"min":[-0.9996521472930908,-0.9998425841331482,-0.9995532631874084],"type":"VEC3"},{"bufferView":5,"componentType":5126,"count":3050,"max":[755.7195434570312,481.0784606933594,1911.9456787109375],"min":[-756.4508666992188,375.9840087890625,1705.3857421875],"type":"VEC3"},{"bufferView":6,"componentType":5126,"count":3050,"max":[0.9999997615814209,0.5733987092971802],"min":[-0.5213650465011597,-0.47816067934036255],"type":"VEC2"},{"bufferView":7,"componentType":5125,"count":10728,"max":[3049],"min":[0],"type":"SCALAR"},{"bufferView":8,"componentType":5126,"count":2545,"max":[0.9532981514930725,0.9999561309814453,0.9997557997703552],"min":[-0.953335702419281,-0.9256107211112976,-0.9769749045372009],"type":"VEC3"},{"bufferView":9,"componentType":5126,"count":2545,"max":[631.9236450195312,453.1535339355469,2000.46337890625],"min":[-632.7046508789062,384.7375183105469,1926.805908203125],"type":"VEC3"},{"bufferView":10,"componentType":5126,"count":2545,"max":[0.5936927795410156,0.08466973155736923],"min":[0.41231751441955566,0.03493606671690941],"type":"VEC2"},{"bufferView":11,"componentType":5125,"count":8352,"max":[2544],"min":[0],"type":"SCALAR"},{"bufferView":12,"componentType":5126,"count":583,"max":[0.9532929062843323,0.9999560117721558,0.9960667490959167],"min":[-0.9532833695411682,-0.9256169199943542,-0.9769753813743591],"type":"VEC3"},{"bufferView":13,"componentType":5126,"count":583,"max":[613.056640625,453.5021667480469,1962.3992919921875],"min":[-613.8243408203125,420.9778747558594,1901.12890625],"type":"VEC3"},{"bufferView":14,"componentType":5126,"count":583,"max":[0.5936927795410156,0.07054997980594635],"min":[0.5382009744644165,0.04404161870479584],"type":"VEC2"},{"bufferView":15,"componentType":5125,"count":2064,"max":[582],"min":[0],"type":"SCALAR"},{"bufferView":16,"componentType":5126,"count":626,"max":[0.930931031703949,0.9874095916748047,0.9990821480751038],"min":[-0.9309960603713989,-0.5999515652656555,-0.3078717887401581],"type":"VEC3"},{"bufferView":17,"componentType":5126,"count":626,"max":[822.2444458007812,530.2807006835938,2077.063232421875],"min":[-822.9268188476562,361.0304870605469,1705.629638671875],"type":"VEC3"},{"bufferView":18,"componentType":5126,"count":626,"max":[1.0052529573440552,0.8714336156845093],"min":[0.04312413930892944,0.045170050114393234],"type":"VEC2"},{"bufferView":19,"componentType":5125,"count":3354,"max":[625],"min":[0],"type":"SCALAR"},{"bufferView":20,"componentType":5126,"count":116,"max":[0.5215471982955933,0.999843180179596,0.5723815560340881],"min":[-0.5216531157493591,0.7757309079170227,-0.017899164929986],"type":"VEC3"},{"bufferView":21,"componentType":5126,"count":116,"max":[801.7748413085938,502.57684326171875,2055.19580078125],"min":[-802.4713745117188,364.16412353515625,1737.722900390625],"type":"VEC3"},{"bufferView":22,"componentType":5126,"count":116,"max":[0.4939121901988983,0.20163360238075256],"min":[0.46038520336151123,0.1700367033481598],"type":"VEC2"},{"bufferView":23,"componentType":5125,"count":432,"max":[115],"min":[0],"type":"SCALAR"}],"materials":[{"pbrMetallicRoughness":{"metallicFactor":0.5104777462178932,"roughnessFactor":0},"doubleSided":true,"name":"CARBONE","extensions":{"KHR_materials_specular":{"specularFactor":0.11428606258609549,"specularColorFactor":[1,1,1]}}},{"pbrMetallicRoughness":{"baseColorFactor":[0.572549,0.572549,0.572549,1],"metallicFactor":1,"roughnessFactor":0},"doubleSided":true,"name":"Chrome"},{"pbrMetallicRoughness":{"baseColorFactor":[0.333333,0.32549,0.313726,1],"metallicFactor":1,"roughnessFactor":0.858579},"doubleSided":true,"name":"HdLightsLens"},{"pbrMetallicRoughness":{"baseColorFactor":[0.301961,0.301961,0.301961,1],"metallicFactor":1,"roughnessFactor":0.831821},"doubleSided":true,"name":"MetalExhaustTextured"},{"pbrMetallicRoughness":{"baseColorFactor":[0.009615739678686761,0.009615739678686761,0.009615739678686761,0.33981055942265725],"metallicFactor":1,"roughnessFactor":0},"alphaMode":"BLEND","doubleSided":true,"name":"GlassLights"},{"pbrMetallicRoughness":{"metallicFactor":1,"roughnessFactor":1},"emissiveFactor":[1,1,1],"doubleSided":true,"name":"LightEmissiveWhite","extensions":{"KHR_materials_emissive_strength":{"emissiveStrength":5.287635162316685}}}],"meshes":[{"primitives":[{"mode":4,"attributes":{"NORMAL":0,"POSITION":1,"TEXCOORD_0":2},"indices":3,"material":0}]},{"primitives":[{"mode":4,"attributes":{"NORMAL":4,"POSITION":5,"TEXCOORD_0":6},"indices":7,"material":1}]},{"primitives":[{"mode":4,"attributes":{"NORMAL":8,"POSITION":9,"TEXCOORD_0":10},"indices":11,"material":2}]},{"primitives":[{"mode":4,"attributes":{"NORMAL":12,"POSITION":13,"TEXCOORD_0":14},"indices":15,"material":3}]},{"primitives":[{"mode":4,"attributes":{"NORMAL":16,"POSITION":17,"TEXCOORD_0":18},"indices":19,"material":4}]},{"primitives":[{"mode":4,"attributes":{"NORMAL":20,"POSITION":21,"TEXCOORD_0":22},"indices":23,"material":5}]}],"extensionsUsed":["KHR_materials_specular","KHR_materials_emissive_strength"]}