{"asset":{"version":"2.0","generator":"THREE.GLTFExporter"},"scenes":[{"nodes":[2]}],"scene":0,"nodes":[{"name":"Object_47","extras":{"name":"Object_47"},"mesh":0},{"matrix":[-0.0010000000474973975,-2.0918647284539333e-12,3.2582793922265596e-10,0,2.091864728453934e-12,0.0009999176142010719,0.00001283977434930846,0,-3.2582793922265596e-10,0.000012839774349308458,-0.000999917614201018,0,0.00036467774771153927,-0.061130091547966,-0.13464504480361938,1],"name":"Body001_7","extras":{"name":"Body.001_7"},"children":[0]},{"children":[1]}],"bufferViews":[{"buffer":0,"byteOffset":0,"byteLength":3840,"target":34962,"byteStride":12},{"buffer":0,"byteOffset":3840,"byteLength":3840,"target":34962,"byteStride":12},{"buffer":0,"byteOffset":7680,"byteLength":2560,"target":34962,"byteStride":8},{"buffer":0,"byteOffset":10240,"byteLength":2560,"target":34962,"byteStride":8},{"buffer":0,"byteOffset":12800,"byteLength":3360,"target":34963}],"buffers":[{"byteLength":16160,"uri":"data:application/octet-stream;base64,"}],"accessors":[{"bufferView":0,"componentType":5126,"count":320,"max":[0.0003933759580831975,0.9999966621398926,0.0026196984108537436],"min":[-0.0003933760162908584,-0.9999966621398926,-0.9875124096870422],"type":"VEC3"},{"bufferView":1,"componentType":5126,"count":320,"max":[864.7256469726562,705.8761596679688,-1952.214111328125],"min":[-864.7256469726562,528.248779296875,-1978.1187744140625],"type":"VEC3"},{"bufferView":2,"componentType":5126,"count":320,"max":[8.396193504333496,-9.714277267456055],"min":[-5.514623165130615,-20.361921310424805],"type":"VEC2"},{"bufferView":3,"componentType":5126,"count":320,"max":[248.9105987548828,136.28155517578125],"min":[-196.07276916503906,-41.28155517578125],"type":"VEC2"},{"bufferView":4,"componentType":5125,"count":840,"max":[319],"min":[0],"type":"SCALAR"}],"materials":[{"pbrMetallicRoughness":{"metallicFactor":0.5104777462178932,"roughnessFactor":0},"doubleSided":true,"name":"CARBONE","extensions":{"KHR_materials_specular":{"specularFactor":0.11428606258609549,"specularColorFactor":[1,1,1]}}}],"meshes":[{"primitives":[{"mode":4,"attributes":{"NORMAL":0,"POSITION":1,"TEXCOORD_0":2,"TEXCOORD_1":3},"indices":4,"material":0}]}],"extensionsUsed":["KHR_materials_specular"]}