{"asset":{"version":"2.0","generator":"THREE.GLTFExporter"},"scenes":[{"nodes":[2]}],"scene":0,"nodes":[{"name":"Object_35","extras":{"name":"Object_35"},"mesh":0},{"matrix":[-0.0010000000474973975,-2.0918647284539333e-12,3.2582793922265596e-10,0,2.091864728453934e-12,0.0009999176142010719,0.00001283977434930846,0,-3.2582793922265596e-10,0.000012839774349308458,-0.000999917614201018,0,0.00042495757224969566,0.04194018244743347,-0.12681978940963745,1],"name":"Undercarriage_5","extras":{"name":"Undercarriage_5"},"children":[0]},{"children":[1]}],"bufferViews":[{"buffer":0,"byteOffset":0,"byteLength":22836,"target":34962,"byteStride":12},{"buffer":0,"byteOffset":22836,"byteLength":22836,"target":34962,"byteStride":12},{"buffer":0,"byteOffset":45672,"byteLength":15224,"target":34962,"byteStride":8},{"buffer":0,"byteOffset":60896,"byteLength":29424,"target":34963}],"buffers":[{"byteLength":90320,"uri":"data:application/octet-stream;base64,"}],"accessors":[{"bufferView":0,"componentType":5126,"count":1903,"max":[1,0.26854556798934937,0.9987791776657104],"min":[-1,-0.9999966621398926,-0.9977734088897705],"type":"VEC3"},{"bufferView":1,"componentType":5126,"count":1903,"max":[999.75048828125,647.8942260742188,2276.418701171875],"min":[-999.7510986328125,-12.822881698608398,-1828.8660888671875],"type":"VEC3"},{"bufferView":2,"componentType":5126,"count":1903,"max":[0.41508662700653076,0.12197879701852798],"min":[0.28755566477775574,0.04097069427371025],"type":"VEC2"},{"bufferView":3,"componentType":5125,"count":7356,"max":[1902],"min":[0],"type":"SCALAR"}],"materials":[{"pbrMetallicRoughness":{"baseColorFactor":[0.0177319702793015,0.0177319702793015,0.0177319702793015,1],"metallicFactor":1,"roughnessFactor":0},"doubleSided":true,"name":"Undercarriage"}],"meshes":[{"primitives":[{"mode":4,"attributes":{"NORMAL":0,"POSITION":1,"TEXCOORD_0":2},"indices":3,"material":0}]}]}