{"asset":{"version":"2.0","generator":"THREE.GLTFExporter"},"scenes":[{"nodes":[2]}],"scene":0,"nodes":[{"name":"Object_51","extras":{"name":"Object_51"},"mesh":0},{"matrix":[-0.9999999999999738,1.6290725396003668e-7,1.6501252082970493e-7,0,-1.629072539600367e-7,0.012839604450622598,-0.999917568881318,0,-1.650125208297049e-7,-0.999917568881318,-0.012839604450596285,0,0.00036467774771153927,-0.061130091547966,-0.13464504480361938,1],"name":"1002_9","extras":{"name":"1.002_9"},"children":[0]},{"children":[1]}],"bufferViews":[{"buffer":0,"byteOffset":0,"byteLength":21768,"target":34962,"byteStride":12},{"buffer":0,"byteOffset":21768,"byteLength":21768,"target":34962,"byteStride":12},{"buffer":0,"byteOffset":43536,"byteLength":14512,"target":34962,"byteStride":8},{"buffer":0,"byteOffset":58048,"byteLength":35064,"target":34963}],"buffers":[{"byteLength":93112,"uri":"data:application/octet-stream;base64,"}],"accessors":[{"bufferView":0,"componentType":5126,"count":1814,"max":[1,0.9740160703659058,0.9986785054206848],"min":[-1,-0.9923691153526306,-0.9977517127990723],"type":"VEC3"},{"bufferView":1,"componentType":5126,"count":1814,"max":[1.0120772123336792,-1.7011929750442505,-0.12040238082408905],"min":[-1.0120772123336792,-2.351828098297119,-0.6035969257354736],"type":"VEC3"},{"bufferView":2,"componentType":5126,"count":1814,"max":[4.3194193840026855,3.2014286518096924],"min":[-5.049073696136475,-2.1378068923950195],"type":"VEC2"},{"bufferView":3,"componentType":5125,"count":8766,"max":[1813],"min":[0],"type":"SCALAR"}],"materials":[{"pbrMetallicRoughness":{"baseColorFactor":[1,0.4467292081272397,0.8496799173033617,1],"metallicFactor":0,"roughnessFactor":0},"doubleSided":true,"name":"CARROSSERIE","extensions":{"KHR_materials_specular":{"specularFactor":0.15085760261364606,"specularColorFactor":[1,1,1]}}}],"meshes":[{"primitives":[{"mode":4,"attributes":{"NORMAL":0,"POSITION":1,"TEXCOORD_0":2},"indices":3,"material":0}]}],"extensionsUsed":["KHR_materials_specular"]}