{"asset":{"version":"2.0","generator":"THREE.GLTFExporter"},"scenes":[{"nodes":[5]}],"scene":0,"nodes":[{"name":"Object_19","extras":{"name":"Object_19"},"mesh":0},{"name":"Object_20","extras":{"name":"Object_20"},"mesh":1},{"name":"Object_21","extras":{"name":"Object_21"},"mesh":2},{"name":"Object_22","extras":{"name":"Object_22"},"mesh":3},{"matrix":[-0.0010000000474973975,-2.0918647284539333e-12,3.2582793922265596e-10,0,2.091864728453934e-12,0.0009999176142010719,0.00001283977434930846,0,-3.2582793922265596e-10,0.000012839774349308458,-0.000999917614201018,0,0.0003646181430667639,-0.061130091547966,-0.13464504480361938,1],"name":"DoorFrLeft_1","extras":{"name":"DoorFrLeft_1"},"children":[0,1,2,3]},{"children":[4]}],"bufferViews":[{"buffer":0,"byteOffset":0,"byteLength":63528,"target":34962,"byteStride":12},{"buffer":0,"byteOffset":63528,"byteLength":63528,"target":34962,"byteStride":12},{"buffer":0,"byteOffset":127056,"byteLength":42352,"target":34962,"byteStride":8},{"buffer":0,"byteOffset":169408,"byteLength":42352,"target":34962,"byteStride":8},{"buffer":0,"byteOffset":211760,"byteLength":105144,"target":34963},{"buffer":0,"byteOffset":316904,"byteLength":25800,"target":34962,"byteStride":12},{"buffer":0,"byteOffset":342704,"byteLength":25800,"target":34962,"byteStride":12},{"buffer":0,"byteOffset":368504,"byteLength":17200,"target":34962,"byteStride":8},{"buffer":0,"byteOffset":385704,"byteLength":17200,"target":34962,"byteStride":8},{"buffer":0,"byteOffset":402904,"byteLength":40704,"target":34963},{"buffer":0,"byteOffset":443608,"byteLength":22896,"target":34962,"byteStride":12},{"buffer":0,"byteOffset":466504,"byteLength":22896,"target":34962,"byteStride":12},{"buffer":0,"byteOffset":489400,"byteLength":15264,"target":34962,"byteStride":8},{"buffer":0,"byteOffset":504664,"byteLength":15264,"target":34962,"byteStride":8},{"buffer":0,"byteOffset":519928,"byteLength":25968,"target":34963},{"buffer":0,"byteOffset":545896,"byteLength":14532,"target":34962,"byteStride":12},{"buffer":0,"byteOffset":560428,"byteLength":14532,"target":34962,"byteStride":12},{"buffer":0,"byteOffset":574960,"byteLength":9688,"target":34962,"byteStride":8},{"buffer":0,"byteOffset":584648,"byteLength":9688,"target":34962,"byteStride":8},{"buffer":0,"byteOffset":594336,"byteLength":22080,"target":34963}],"buffers":[{"byteLength":616416,"uri":"data:application/octet-stream;base64,"}],"accessors":[{"bufferView":0,"componentType":5126,"count":5294,"max":[0.999976396560669,0.9991762638092041,0.9996792078018188],"min":[-0.999976396560669,-0.9988884329795837,-0.9859627485275269],"type":"VEC3"},{"bufferView":1,"componentType":5126,"count":5294,"max":[1117.0576171875,880.3184204101562,854.2442626953125],"min":[-1117.0576171875,225.91690063476562,-461.2470703125],"type":"VEC3"},{"bufferView":2,"componentType":5126,"count":5294,"max":[1.3957144021987915,1.3326061964035034],"min":[-0.6728915572166443,-3.1142125129699707],"type":"VEC2"},{"bufferView":3,"componentType":5126,"count":5294,"max":[454.4154357910156,13.333171844482422],"min":[-857.7196044921875,-1117.1181640625],"type":"VEC2"},{"bufferView":4,"componentType":5125,"count":26286,"max":[5293],"min":[0],"type":"SCALAR"},{"bufferView":5,"componentType":5126,"count":2150,"max":[0.998054563999176,0.9943269491195679,0.9930863976478577],"min":[-0.9980549812316895,-0.9842760562896729,-0.9999966621398926],"type":"VEC3"},{"bufferView":6,"componentType":5126,"count":2150,"max":[1116.0982666015625,875.8120727539062,774.3072509765625],"min":[-1116.0982666015625,655.1801147460938,-265.062255859375],"type":"VEC3"},{"bufferView":7,"componentType":5126,"count":2150,"max":[3.6673412322998047,4.114212512969971],"min":[-2.7759227752685547,-17.804903030395508],"type":"VEC2"},{"bufferView":8,"componentType":5126,"count":2150,"max":[256.6573486328125,-755.1145629882812],"min":[-782.6485595703125,-1116.1588134765625],"type":"VEC2"},{"bufferView":9,"componentType":5125,"count":10176,"max":[2149],"min":[0],"type":"SCALAR"},{"bufferView":10,"componentType":5126,"count":1908,"max":[0.9980971217155457,0.9998958110809326,0.9921146035194397],"min":[-0.9980972409248352,-0.9999634027481079,-0.9908257722854614],"type":"VEC3"},{"bufferView":11,"componentType":5126,"count":1908,"max":[1105.7203369140625,868.5148315429688,672.4406127929688],"min":[-1105.7203369140625,667.91943359375,-346.40380859375],"type":"VEC3"},{"bufferView":12,"componentType":5126,"count":1908,"max":[0.9959931373596191,0.9965600967407227],"min":[0.005860120058059692,0.00413018511608243],"type":"VEC2"},{"bufferView":13,"componentType":5126,"count":1908,"max":[1590.386474609375,-744.939453125],"min":[-657.5958251953125,-1085.9007568359375],"type":"VEC2"},{"bufferView":14,"componentType":5125,"count":6492,"max":[1907],"min":[0],"type":"SCALAR"},{"bufferView":15,"componentType":5126,"count":1211,"max":[0.9999374151229858,0.9996915459632874,0.9972877502441406],"min":[-0.9999372959136963,-0.9574748873710632,-0.9974157810211182],"type":"VEC3"},{"bufferView":16,"componentType":5126,"count":1211,"max":[849.0056762695312,1036.0595703125,660.1465454101562],"min":[-849.0056762695312,698.319091796875,-285.68017578125],"type":"VEC3"},{"bufferView":17,"componentType":5126,"count":1211,"max":[0.9809088110923767,0.8949470520019531],"min":[0.7360954284667969,0.1228623017668724],"type":"VEC2"},{"bufferView":18,"componentType":5126,"count":1211,"max":[276.74456787109375,-599.4185791015625],"min":[-668.2327270507812,-849.1039428710938],"type":"VEC2"},{"bufferView":19,"componentType":5125,"count":5520,"max":[1210],"min":[0],"type":"SCALAR"}],"materials":[{"pbrMetallicRoughness":{"baseColorFactor":[1,0.4467292081272397,0.8496799173033617,1],"metallicFactor":0,"roughnessFactor":0},"doubleSided":true,"name":"CARROSSERIE","extensions":{"KHR_materials_specular":{"specularFactor":0.15085760261364606,"specularColorFactor":[1,1,1]}}},{"pbrMetallicRoughness":{"metallicFactor":0.5104777462178932,"roughnessFactor":0},"doubleSided":true,"name":"CARBONE","extensions":{"KHR_materials_specular":{"specularFactor":0.11428606258609549,"specularColorFactor":[1,1,1]}}},{"pbrMetallicRoughness":{"baseColorFactor":[0.572549,0.572549,0.572549,1],"metallicFactor":1,"roughnessFactor":0},"doubleSided":true,"name":"Chrome"},{"pbrMetallicRoughness":{"baseColorFactor":[0.00206373,0.00206373,0.00206373,1],"metallicFactor":1,"roughnessFactor":0.7055259596981628},"doubleSided":true,"name":"GLASS","extensions":{"KHR_materials_specular":{"specularFactor":0.028952469188477523,"specularColorFactor":[1,1,1]}}}],"meshes":[{"primitives":[{"mode":4,"attributes":{"NORMAL":0,"POSITION":1,"TEXCOORD_0":2,"TEXCOORD_1":3},"indices":4,"material":0}]},{"primitives":[{"mode":4,"attributes":{"NORMAL":5,"POSITION":6,"TEXCOORD_0":7,"TEXCOORD_1":8},"indices":9,"material":1}]},{"primitives":[{"mode":4,"attributes":{"NORMAL":10,"POSITION":11,"TEXCOORD_0":12,"TEXCOORD_1":13},"indices":14,"material":2}]},{"primitives":[{"mode":4,"attributes":{"NORMAL":15,"POSITION":16,"TEXCOORD_0":17,"TEXCOORD_1":18},"indices":19,"material":3}]}],"extensionsUsed":["KHR_materials_specular"]}